<svg width="302" height="58" viewBox="0 0 302 58" fill="none" xmlns="http://www.w3.org/2000/svg">
<path d="M11.52 46.38L12.94 46.36V47.18C12.78 47.1533 12.5933 47.14 12.38 47.14C12.1667 47.14 11.9267 47.1533 11.66 47.18C11.66 48.2067 11.1667 49.2467 10.18 50.3C9.19333 51.3533 8 52.2067 6.6 52.86C5.21333 53.5267 3.92 53.86 2.72 53.86C2.09333 53.86 1.58 53.7 1.18 53.38C0.793333 53.06 0.6 52.64 0.6 52.12C0.6 51.3467 1.11333 50.54 2.14 49.7C3.16667 48.86 4.36667 48.1667 5.74 47.62C7.11333 47.0733 8.35333 46.7533 9.46 46.66C9.32667 46.46 9.12 46.2867 8.84 46.14C8.56 45.9933 7.98667 45.7667 7.12 45.46C6.25333 45.14 5.64 44.7933 5.28 44.42C4.92 44.0333 4.74 43.4933 4.74 42.8C4.74 42.1067 5.11333 41.3133 5.86 40.42C6.60667 39.5267 7.48667 38.78 8.5 38.18C9.52667 37.5667 10.4267 37.26 11.2 37.26C11.5467 37.26 11.8333 37.3867 12.06 37.64C12.2867 37.88 12.4 38.18 12.4 38.54C12.4 39.1267 12.0467 39.8667 11.34 40.76C10.6333 41.64 9.84667 42.3133 8.98 42.78L8.5 42.1C9.02 41.8333 9.47333 41.42 9.86 40.86C10.26 40.2867 10.46 39.7933 10.46 39.38C10.46 38.9667 10.24 38.76 9.8 38.76C9.17333 38.76 8.45333 39.1533 7.64 39.94C6.84 40.7133 6.44 41.44 6.44 42.12C6.44 42.5867 6.56 42.9533 6.8 43.22C7.04 43.4867 7.64667 43.82 8.62 44.22C9.59333 44.6067 10.2867 44.9533 10.7 45.26C11.1133 45.5533 11.3867 45.9267 11.52 46.38ZM2.6 51.6C2.6 52.24 3.12 52.56 4.16 52.56C4.73333 52.56 5.47333 52.3467 6.38 51.92C7.3 51.5067 8.10667 50.92 8.8 50.16C9.50667 49.4133 9.86 48.6467 9.86 47.86C9.86 47.7667 9.84 47.6267 9.8 47.44C7.97333 47.6133 6.31333 48.1267 4.82 48.98C3.34 49.8333 2.6 50.7067 2.6 51.6ZM17.2191 47.76L17.6591 48.26C17.3257 48.78 16.9191 49.1867 16.4391 49.48C15.9724 49.7733 15.4991 49.92 15.0191 49.92C14.5391 49.92 14.1591 49.7867 13.8791 49.52C13.5991 49.24 13.4591 48.86 13.4591 48.38C13.4591 47.26 13.8791 45.7133 14.7191 43.74C14.0391 43.8467 13.3591 44.0067 12.6791 44.22L12.5391 43.44L12.5191 43.42C13.1857 43.14 14.0591 42.9133 15.1391 42.74C15.2457 42.54 15.4857 42.0533 15.8591 41.28C16.6057 39.7467 17.1391 38.7533 17.4591 38.3L18.3191 38.64C18.1857 38.9333 17.9524 39.4267 17.6191 40.12C17.2857 40.8 16.9124 41.5733 16.4991 42.44C17.0991 42.4 17.5724 42.38 17.9191 42.38C18.2657 42.38 18.5324 42.4333 18.7191 42.54V43.4C18.5324 43.36 18.2591 43.34 17.8991 43.34C17.5524 43.34 16.9257 43.4 16.0191 43.52C15.2324 45.28 14.8391 46.56 14.8391 47.36C14.8391 47.6667 14.9324 47.92 15.1191 48.12C15.3191 48.32 15.5791 48.42 15.8991 48.42C16.2324 48.42 16.6724 48.2 17.2191 47.76ZM25.9606 47.8L26.3806 48.14C26.154 48.7 25.794 49.1733 25.3006 49.56C24.8206 49.9467 24.3806 50.14 23.9806 50.14C23.594 50.14 23.2873 50.0067 23.0606 49.74C22.834 49.46 22.7206 49.1 22.7206 48.66C22.7206 48.22 22.794 47.6533 22.9406 46.96C22.314 47.9467 21.6406 48.72 20.9206 49.28C20.2006 49.84 19.594 50.12 19.1006 50.12C18.354 50.12 17.9806 49.5867 17.9806 48.52C17.9806 47.6133 18.2873 46.4533 18.9006 45.04C19.514 43.6267 19.9606 42.8067 20.2406 42.58L21.2006 43C20.654 43.88 20.2406 44.7467 19.9606 45.6C19.6806 46.4533 19.5406 47.0267 19.5406 47.32C19.5406 47.6 19.6273 47.8267 19.8006 48C19.9873 48.1733 20.2006 48.26 20.4406 48.26C20.974 48.26 21.634 47.7733 22.4206 46.8C23.2206 45.8133 24.034 44.3467 24.8606 42.4L25.8806 42.86C25.854 42.9667 25.5473 43.74 24.9606 45.18C24.3873 46.62 24.1006 47.4867 24.1006 47.78C24.1006 48.06 24.1606 48.2733 24.2806 48.42C24.414 48.5667 24.5406 48.64 24.6606 48.64C24.794 48.64 24.894 48.6333 24.9606 48.62C25.0273 48.6067 25.094 48.58 25.1606 48.54C25.2273 48.5 25.2806 48.4667 25.3206 48.44C25.374 48.4133 25.434 48.3667 25.5006 48.3L25.6606 48.16C25.6873 48.12 25.734 48.06 25.8006 47.98C25.8806 47.8867 25.934 47.8267 25.9606 47.8ZM36.8292 35.22L37.8492 35.58L37.5692 36.1C36.1026 38.8333 34.8559 41.48 33.8292 44.04C33.1492 45.72 32.8092 46.98 32.8092 47.82C32.8092 48.0333 32.8626 48.2067 32.9692 48.34C33.0759 48.46 33.2426 48.52 33.4692 48.52C33.7092 48.52 33.9826 48.3667 34.2892 48.06L34.6492 48.4C34.4759 48.7867 34.1759 49.1467 33.7492 49.48C33.3226 49.8 32.9092 49.96 32.5092 49.96C31.7359 49.96 31.3492 49.5067 31.3492 48.6C31.3492 48.0667 31.4959 47.2467 31.7892 46.14C30.2159 48.8867 28.6759 50.26 27.1692 50.26C26.6492 50.26 26.2359 50.1 25.9292 49.78C25.6226 49.46 25.4692 49.0267 25.4692 48.48C25.4692 47.6133 25.8159 46.7133 26.5092 45.78C27.2026 44.8467 28.0559 44.0867 29.0692 43.5C30.0826 42.9 31.0292 42.6 31.9092 42.6L31.9692 43.3C30.8226 43.4467 29.7492 43.9467 28.7492 44.8C27.7626 45.64 27.2692 46.5 27.2692 47.38C27.2692 47.7533 27.3692 48.0533 27.5692 48.28C27.7692 48.4933 28.0292 48.6 28.3492 48.6C29.0026 48.6 29.8559 47.9 30.9092 46.5C31.2959 45.9933 31.7359 45.2533 32.2292 44.28C32.7359 43.3067 33.1359 42.5267 33.4292 41.94C33.7359 41.34 34.0292 40.76 34.3092 40.2C34.6026 39.6267 34.9826 38.88 35.4492 37.96C35.9159 37.0267 36.3759 36.1133 36.8292 35.22ZM39.6011 41.52C38.8544 41.52 38.4811 41.22 38.4811 40.62C38.4811 40.2867 38.5744 40.0067 38.7611 39.78C38.9478 39.5533 39.1878 39.44 39.4811 39.44C39.7744 39.44 40.0144 39.5267 40.2011 39.7C40.3878 39.8733 40.4811 40.1 40.4811 40.38C40.4811 40.66 40.4011 40.92 40.2411 41.16C40.0811 41.4 39.8678 41.52 39.6011 41.52ZM39.3411 47.42L39.7411 47.76C39.4211 48.3733 38.9944 48.9 38.4611 49.34C37.9411 49.7667 37.4678 49.98 37.0411 49.98C36.2944 49.98 35.9211 49.46 35.9211 48.42C35.9211 47.1267 36.4544 45.44 37.5211 43.36C37.7611 42.9067 37.9011 42.64 37.9411 42.56L38.8011 43.08C38.5211 43.5867 38.1744 44.3933 37.7611 45.5C37.3611 46.6067 37.1611 47.32 37.1611 47.64C37.1611 47.9467 37.2278 48.1667 37.3611 48.3C37.4944 48.4333 37.6544 48.5 37.8411 48.5C38.2011 48.5 38.7011 48.14 39.3411 47.42ZM45.3727 44.06C45.7193 44.6333 45.8927 45.2667 45.8927 45.96C45.8927 47.04 45.5193 48.0067 44.7727 48.86C44.026 49.7 43.146 50.12 42.1327 50.12C41.3593 50.12 40.7527 49.9 40.3127 49.46C39.886 49.0067 39.6727 48.3867 39.6727 47.6C39.6727 46.3333 40.166 45.2 41.1527 44.2C42.1393 43.1867 43.246 42.68 44.4727 42.68C44.6993 42.68 44.8593 42.6867 44.9527 42.7L45.0127 43.36C43.946 43.36 43.0593 43.6667 42.3527 44.28C41.646 44.8933 41.2927 45.68 41.2927 46.64C41.2927 47.2133 41.4327 47.68 41.7127 48.04C41.9927 48.3867 42.3993 48.56 42.9327 48.56C43.4793 48.56 43.9127 48.32 44.2327 47.84C44.5527 47.36 44.7127 46.8 44.7127 46.16C44.7127 45.5067 44.586 44.9133 44.3327 44.38L45.3727 44.06ZM59.2031 44.06C59.5498 44.6333 59.7231 45.2667 59.7231 45.96C59.7231 47.04 59.3498 48.0067 58.6031 48.86C57.8565 49.7 56.9765 50.12 55.9631 50.12C55.1898 50.12 54.5831 49.9 54.1431 49.46C53.7165 49.0067 53.5031 48.3867 53.5031 47.6C53.5031 46.3333 53.9965 45.2 54.9831 44.2C55.9698 43.1867 57.0765 42.68 58.3031 42.68C58.5298 42.68 58.6898 42.6867 58.7831 42.7L58.8431 43.36C57.7765 43.36 56.8898 43.6667 56.1831 44.28C55.4765 44.8933 55.1231 45.68 55.1231 46.64C55.1231 47.2133 55.2631 47.68 55.5431 48.04C55.8231 48.3867 56.2298 48.56 56.7631 48.56C57.3098 48.56 57.7431 48.32 58.0631 47.84C58.3831 47.36 58.5431 46.8 58.5431 46.16C58.5431 45.5067 58.4165 44.9133 58.1631 44.38L59.2031 44.06ZM63.2042 42.14L62.5642 44.56L65.1642 44.26L64.5842 45.2L62.3442 45.5C62.1709 46.22 61.8776 47.3067 61.4642 48.76C60.5709 51.9067 60.1242 53.9 60.1242 54.74L58.8442 55.4C58.8442 54.2533 59.3376 52.04 60.3242 48.76C60.8309 47.12 61.1442 46.0667 61.2642 45.6C60.7976 45.72 60.3709 45.78 59.9842 45.78C59.2242 45.78 58.8442 45.48 58.8442 44.88C58.8442 44.5467 59.0976 44.1467 59.6042 43.68C60.3376 43 61.2109 42.4 62.2242 41.88C63.0109 39.2 63.5776 37.52 63.9242 36.84C64.3909 35.92 64.8176 35.3333 65.2042 35.08C65.7776 34.72 66.3709 34.54 66.9842 34.54C67.5976 34.54 68.0309 34.7133 68.2842 35.06C68.5376 35.4067 68.6509 35.8133 68.6242 36.28C68.5576 37.96 66.7509 39.9133 63.2042 42.14ZM66.4042 36.24C65.6576 36.24 65.1042 36.6 64.7442 37.32C64.4642 37.88 64.2176 38.5533 64.0042 39.34C63.7909 40.1267 63.6376 40.6667 63.5442 40.96C64.2776 40.5067 65.0642 39.8933 65.9042 39.12C66.7442 38.3467 67.1776 37.6733 67.2042 37.1C67.2309 36.5267 66.9642 36.24 66.4042 36.24ZM61.5442 44.66L61.9842 42.9C61.4776 43.1133 61.0776 43.3333 60.7842 43.56C60.5042 43.7867 60.3642 43.98 60.3642 44.14C60.3642 44.4867 60.7576 44.66 61.5442 44.66ZM75.93 46.32C76.9433 44.8 77.8233 43.7667 78.57 43.22C79.3167 42.66 79.97 42.38 80.53 42.38C81.09 42.38 81.5233 42.5533 81.83 42.9C82.1367 43.2333 82.29 43.66 82.29 44.18C82.29 45.62 81.77 46.9533 80.73 48.18C79.7033 49.3933 78.5433 50 77.25 50C76.6767 50 76.2233 49.9 75.89 49.7L76.37 48.84C77.0633 48.9333 77.4967 48.98 77.67 48.98C78.39 48.98 79.0633 48.56 79.69 47.72C80.3167 46.88 80.63 46.02 80.63 45.14C80.63 44.8067 80.53 44.5333 80.33 44.32C80.1433 44.0933 79.8967 43.98 79.59 43.98C78.8567 43.98 78.0233 44.6267 77.09 45.92C76.17 47.2133 75.3033 48.8133 74.49 50.72C73.69 52.64 72.99 54.68 72.39 56.84L71.19 56.42C71.2167 56.34 71.47 55.6467 71.95 54.34C72.4167 53.0467 72.8767 51.76 73.33 50.48C74.5833 46.96 75.21 45.0333 75.21 44.7C75.21 43.8467 75.0367 43.0733 74.69 42.38L75.69 41.88C76.1033 42.4533 76.31 43.06 76.31 43.7C76.31 44.3267 76.1833 45.2 75.93 46.32ZM87.2523 47.64L87.7123 48C87.299 48.5733 86.7323 49.0533 86.0123 49.44C85.2923 49.8133 84.5923 50 83.9123 50C83.2323 50 82.6857 49.8 82.2723 49.4C81.859 49 81.6523 48.4733 81.6523 47.82C81.6523 46.5933 82.299 45.3867 83.5923 44.2C84.899 43.0133 86.219 42.42 87.5523 42.42C88.4323 42.42 88.8723 42.7667 88.8723 43.46C88.8723 44.18 88.4057 44.9067 87.4723 45.64C86.5523 46.3733 85.2523 47.04 83.5723 47.64C83.6923 47.9467 83.879 48.1867 84.1323 48.36C84.3857 48.5333 84.6457 48.62 84.9123 48.62C85.4857 48.62 86.2657 48.2933 87.2523 47.64ZM83.4723 47.04C84.5523 46.6667 85.479 46.2 86.2523 45.64C87.0257 45.08 87.4123 44.5667 87.4123 44.1C87.4123 43.9267 87.3457 43.7733 87.2123 43.64C87.079 43.5067 86.9257 43.44 86.7523 43.44C86.1257 43.44 85.4457 43.8333 84.7123 44.62C83.9923 45.3933 83.579 46.2 83.4723 47.04ZM93.6695 42.92C94.0029 42.92 94.2762 43.0333 94.4895 43.26C94.7029 43.4867 94.8095 43.78 94.8095 44.14C94.8095 44.86 94.3962 45.62 93.5695 46.42L93.0895 46.04C93.2762 45.6267 93.3695 45.3267 93.3695 45.14C93.3695 44.78 93.1695 44.6 92.7695 44.6C92.3695 44.6 91.9895 44.8533 91.6295 45.36C91.2695 45.8667 90.8429 46.6533 90.3495 47.72C89.8695 48.7733 89.5029 49.52 89.2495 49.96L88.1095 49.46C88.8429 47.7933 89.2629 46.8133 89.3695 46.52C89.7295 45.48 89.9095 44.16 89.9095 42.56L91.0295 42.26C90.9895 43.1267 90.9295 43.8 90.8495 44.28C90.7695 44.7467 90.5762 45.5133 90.2695 46.58C91.6162 44.14 92.7495 42.92 93.6695 42.92ZM107.519 47.4L107.939 47.8C107.179 49.16 106.306 49.84 105.319 49.84C104.919 49.84 104.606 49.7333 104.379 49.52C104.166 49.2933 104.059 49 104.059 48.64C104.059 48.2667 104.279 47.6333 104.719 46.74C105.159 45.8467 105.392 45.1667 105.419 44.7C105.432 44.4867 105.366 44.3133 105.219 44.18C105.086 44.0467 104.899 43.98 104.659 43.98C104.419 43.98 104.172 44.04 103.919 44.16C103.679 44.2667 103.439 44.4467 103.199 44.7C102.972 44.9533 102.759 45.2 102.559 45.44C102.372 45.68 102.159 46.02 101.919 46.46C101.692 46.9 101.499 47.2667 101.339 47.56C101.059 48.1067 100.659 48.9267 100.139 50.02L98.9389 49.6C98.9389 49.56 99.1589 48.8067 99.5989 47.34C100.039 45.8733 100.259 45 100.259 44.72C100.259 44.44 100.192 44.24 100.059 44.12C99.9256 43.9867 99.7589 43.92 99.5589 43.92C98.9589 43.92 98.1256 44.6667 97.0589 46.16C96.0056 47.6533 95.3322 48.9267 95.0389 49.98L93.8989 49.6C93.9656 48.8933 94.2789 47.6267 94.8389 45.8C95.3989 43.96 95.8722 42.7067 96.2589 42.04L97.1589 42.36C96.7456 43.28 96.4589 44.06 96.2989 44.7C96.1389 45.3267 95.9989 46 95.8789 46.72C97.0256 45.08 97.9856 43.9333 98.7589 43.28C99.5322 42.6133 100.232 42.28 100.859 42.28C101.539 42.28 101.879 42.62 101.879 43.3C101.879 43.5667 101.759 44.0933 101.519 44.88C101.292 45.6667 101.112 46.2867 100.979 46.74C102.819 43.78 104.466 42.3 105.919 42.3C106.279 42.3 106.566 42.4133 106.779 42.64C106.992 42.8533 107.099 43.18 107.099 43.62C107.099 44.0467 106.846 44.76 106.339 45.76C105.846 46.76 105.599 47.3933 105.599 47.66C105.599 47.9133 105.652 48.1 105.759 48.22C105.866 48.34 105.999 48.4 106.159 48.4C106.506 48.4 106.959 48.0667 107.519 47.4ZM115.792 47.98L116.252 48.32C116.066 48.72 115.719 49.1 115.212 49.46C114.719 49.82 114.266 50 113.852 50C113.066 50 112.672 49.5867 112.672 48.76C112.672 48.3733 112.772 47.9133 112.972 47.38L112.232 48.14C111.512 48.8733 110.886 49.3667 110.352 49.62C109.832 49.8733 109.319 50 108.812 50C108.306 50 107.919 49.86 107.652 49.58C107.399 49.2867 107.272 48.8867 107.272 48.38C107.272 47.4467 107.632 46.5267 108.352 45.62C109.072 44.7 109.992 43.9533 111.112 43.38C112.232 42.8067 113.352 42.5133 114.472 42.5L114.512 43.16L113.672 43.34C112.459 43.6067 111.386 44.14 110.452 44.94C109.532 45.74 109.072 46.54 109.072 47.34C109.072 48.1267 109.392 48.52 110.032 48.52C110.632 48.52 111.372 48.1 112.252 47.26C113.132 46.42 113.866 45.4333 114.452 44.3L115.292 44.8C114.466 46.4667 114.052 47.5267 114.052 47.98C114.052 48.1667 114.112 48.3267 114.232 48.46C114.366 48.58 114.492 48.64 114.612 48.64C114.746 48.64 114.832 48.6333 114.872 48.62C114.912 48.6067 114.952 48.5933 114.992 48.58C115.032 48.5533 115.079 48.52 115.132 48.48C115.199 48.44 115.252 48.4 115.292 48.36C115.346 48.32 115.426 48.26 115.532 48.18C115.639 48.1 115.726 48.0333 115.792 47.98ZM123.768 47.58L124.188 47.9C123.894 48.4867 123.488 48.98 122.968 49.38C122.461 49.78 122.001 49.98 121.588 49.98C121.174 49.98 120.848 49.86 120.608 49.62C120.368 49.38 120.248 49.08 120.248 48.72C120.248 48.36 120.474 47.7333 120.928 46.84C121.394 45.9333 121.628 45.2667 121.628 44.84C121.628 44.6533 121.548 44.4867 121.388 44.34C121.241 44.18 121.061 44.1 120.848 44.1C120.168 44.1 119.481 44.62 118.788 45.66C118.094 46.6867 117.321 48.1733 116.468 50.12L115.268 49.7C115.521 48.1533 115.881 46.6467 116.348 45.18C116.828 43.7 117.268 42.64 117.668 42L118.488 42.26C118.114 43.2067 117.641 44.84 117.068 47.16C118.908 44.0133 120.601 42.44 122.148 42.44C122.481 42.44 122.754 42.5533 122.968 42.78C123.194 43.0067 123.308 43.2733 123.308 43.58C123.308 43.8867 123.268 44.1667 123.188 44.42C123.108 44.66 122.854 45.2333 122.428 46.14C122.014 47.0333 121.808 47.5933 121.808 47.82C121.808 48.0467 121.874 48.2267 122.008 48.36C122.141 48.48 122.268 48.54 122.388 48.54C122.508 48.54 122.608 48.52 122.688 48.48C122.768 48.44 122.854 48.38 122.948 48.3C123.054 48.22 123.148 48.1467 123.228 48.08C123.308 48.0133 123.401 47.9267 123.508 47.82C123.628 47.7 123.714 47.62 123.768 47.58ZM129.065 47.64L129.525 48C129.112 48.5733 128.545 49.0533 127.825 49.44C127.105 49.8133 126.405 50 125.725 50C125.045 50 124.498 49.8 124.085 49.4C123.672 49 123.465 48.4733 123.465 47.82C123.465 46.5933 124.112 45.3867 125.405 44.2C126.712 43.0133 128.032 42.42 129.365 42.42C130.245 42.42 130.685 42.7667 130.685 43.46C130.685 44.18 130.218 44.9067 129.285 45.64C128.365 46.3733 127.065 47.04 125.385 47.64C125.505 47.9467 125.692 48.1867 125.945 48.36C126.198 48.5333 126.458 48.62 126.725 48.62C127.298 48.62 128.078 48.2933 129.065 47.64ZM125.285 47.04C126.365 46.6667 127.292 46.2 128.065 45.64C128.838 45.08 129.225 44.5667 129.225 44.1C129.225 43.9267 129.158 43.7733 129.025 43.64C128.892 43.5067 128.738 43.44 128.565 43.44C127.938 43.44 127.258 43.8333 126.525 44.62C125.805 45.3933 125.392 46.2 125.285 47.04ZM138.262 47.58L138.682 47.9C138.389 48.4867 137.982 48.98 137.462 49.38C136.955 49.78 136.495 49.98 136.082 49.98C135.669 49.98 135.342 49.86 135.102 49.62C134.862 49.38 134.742 49.08 134.742 48.72C134.742 48.36 134.969 47.7333 135.422 46.84C135.889 45.9333 136.122 45.2667 136.122 44.84C136.122 44.6533 136.042 44.4867 135.882 44.34C135.735 44.18 135.555 44.1 135.342 44.1C134.662 44.1 133.975 44.62 133.282 45.66C132.589 46.6867 131.815 48.1733 130.962 50.12L129.762 49.7C130.015 48.1533 130.375 46.6467 130.842 45.18C131.322 43.7 131.762 42.64 132.162 42L132.982 42.26C132.609 43.2067 132.135 44.84 131.562 47.16C133.402 44.0133 135.095 42.44 136.642 42.44C136.975 42.44 137.249 42.5533 137.462 42.78C137.689 43.0067 137.802 43.2733 137.802 43.58C137.802 43.8867 137.762 44.1667 137.682 44.42C137.602 44.66 137.349 45.2333 136.922 46.14C136.509 47.0333 136.302 47.5933 136.302 47.82C136.302 48.0467 136.369 48.2267 136.502 48.36C136.635 48.48 136.762 48.54 136.882 48.54C137.002 48.54 137.102 48.52 137.182 48.48C137.262 48.44 137.349 48.38 137.442 48.3C137.549 48.22 137.642 48.1467 137.722 48.08C137.802 48.0133 137.895 47.9267 138.002 47.82C138.122 47.7 138.209 47.62 138.262 47.58ZM142.639 47.76L143.079 48.26C142.746 48.78 142.339 49.1867 141.859 49.48C141.393 49.7733 140.919 49.92 140.439 49.92C139.959 49.92 139.579 49.7867 139.299 49.52C139.019 49.24 138.879 48.86 138.879 48.38C138.879 47.26 139.299 45.7133 140.139 43.74C139.459 43.8467 138.779 44.0067 138.099 44.22L137.959 43.44L137.939 43.42C138.606 43.14 139.479 42.9133 140.559 42.74C140.666 42.54 140.906 42.0533 141.279 41.28C142.026 39.7467 142.559 38.7533 142.879 38.3L143.739 38.64C143.606 38.9333 143.373 39.4267 143.039 40.12C142.706 40.8 142.333 41.5733 141.919 42.44C142.519 42.4 142.993 42.38 143.339 42.38C143.686 42.38 143.953 42.4333 144.139 42.54V43.4C143.953 43.36 143.679 43.34 143.319 43.34C142.973 43.34 142.346 43.4 141.439 43.52C140.653 45.28 140.259 46.56 140.259 47.36C140.259 47.6667 140.353 47.92 140.539 48.12C140.739 48.32 140.999 48.42 141.319 48.42C141.653 48.42 142.093 48.2 142.639 47.76ZM165.31 47.4L165.73 47.8C164.97 49.16 164.097 49.84 163.11 49.84C162.71 49.84 162.397 49.7333 162.17 49.52C161.957 49.2933 161.85 49 161.85 48.64C161.85 48.2667 162.07 47.6333 162.51 46.74C162.95 45.8467 163.184 45.1667 163.21 44.7C163.224 44.4867 163.157 44.3133 163.01 44.18C162.877 44.0467 162.69 43.98 162.45 43.98C162.21 43.98 161.964 44.04 161.71 44.16C161.47 44.2667 161.23 44.4467 160.99 44.7C160.764 44.9533 160.55 45.2 160.35 45.44C160.164 45.68 159.95 46.02 159.71 46.46C159.484 46.9 159.29 47.2667 159.13 47.56C158.85 48.1067 158.45 48.9267 157.93 50.02L156.73 49.6C156.73 49.56 156.95 48.8067 157.39 47.34C157.83 45.8733 158.05 45 158.05 44.72C158.05 44.44 157.984 44.24 157.85 44.12C157.717 43.9867 157.55 43.92 157.35 43.92C156.75 43.92 155.917 44.6667 154.85 46.16C153.797 47.6533 153.124 48.9267 152.83 49.98L151.69 49.6C151.757 48.8933 152.07 47.6267 152.63 45.8C153.19 43.96 153.664 42.7067 154.05 42.04L154.95 42.36C154.537 43.28 154.25 44.06 154.09 44.7C153.93 45.3267 153.79 46 153.67 46.72C154.817 45.08 155.777 43.9333 156.55 43.28C157.324 42.6133 158.024 42.28 158.65 42.28C159.33 42.28 159.67 42.62 159.67 43.3C159.67 43.5667 159.55 44.0933 159.31 44.88C159.084 45.6667 158.904 46.2867 158.77 46.74C160.61 43.78 162.257 42.3 163.71 42.3C164.07 42.3 164.357 42.4133 164.57 42.64C164.784 42.8533 164.89 43.18 164.89 43.62C164.89 44.0467 164.637 44.76 164.13 45.76C163.637 46.76 163.39 47.3933 163.39 47.66C163.39 47.9133 163.444 48.1 163.55 48.22C163.657 48.34 163.79 48.4 163.95 48.4C164.297 48.4 164.75 48.0667 165.31 47.4ZM173.584 47.98L174.044 48.32C173.857 48.72 173.511 49.1 173.004 49.46C172.511 49.82 172.057 50 171.644 50C170.857 50 170.464 49.5867 170.464 48.76C170.464 48.3733 170.564 47.9133 170.764 47.38L170.024 48.14C169.304 48.8733 168.677 49.3667 168.144 49.62C167.624 49.8733 167.111 50 166.604 50C166.097 50 165.711 49.86 165.444 49.58C165.191 49.2867 165.064 48.8867 165.064 48.38C165.064 47.4467 165.424 46.5267 166.144 45.62C166.864 44.7 167.784 43.9533 168.904 43.38C170.024 42.8067 171.144 42.5133 172.264 42.5L172.304 43.16L171.464 43.34C170.251 43.6067 169.177 44.14 168.244 44.94C167.324 45.74 166.864 46.54 166.864 47.34C166.864 48.1267 167.184 48.52 167.824 48.52C168.424 48.52 169.164 48.1 170.044 47.26C170.924 46.42 171.657 45.4333 172.244 44.3L173.084 44.8C172.257 46.4667 171.844 47.5267 171.844 47.98C171.844 48.1667 171.904 48.3267 172.024 48.46C172.157 48.58 172.284 48.64 172.404 48.64C172.537 48.64 172.624 48.6333 172.664 48.62C172.704 48.6067 172.744 48.5933 172.784 48.58C172.824 48.5533 172.871 48.52 172.924 48.48C172.991 48.44 173.044 48.4 173.084 48.36C173.137 48.32 173.217 48.26 173.324 48.18C173.431 48.1 173.517 48.0333 173.584 47.98ZM181.259 47.96L181.759 48.4C180.986 49.6667 180.166 50.3 179.299 50.3C178.766 50.3 178.219 49.9067 177.659 49.12C177.099 48.3333 176.819 47.6867 176.819 47.18C176.819 46.86 177.299 46.54 178.259 46.22C178.619 46.1 178.946 45.92 179.239 45.68C179.546 45.4267 179.699 45.1667 179.699 44.9C179.699 44.6333 179.626 44.4333 179.479 44.3C179.332 44.1533 179.146 44.08 178.919 44.08C177.452 44.2133 175.919 46.1867 174.319 50L173.099 49.58C173.099 49.0067 173.872 46.6867 175.419 42.62C176.979 38.5533 178.086 36.0933 178.739 35.24L179.719 35.6C177.919 38.7333 176.412 42.3733 175.199 46.52C176.239 44.96 177.132 43.92 177.879 43.4C178.626 42.88 179.339 42.62 180.019 42.62C180.432 42.62 180.759 42.7467 180.999 43C181.252 43.2533 181.379 43.58 181.379 43.98C181.379 44.3667 181.279 44.72 181.079 45.04C180.892 45.36 180.619 45.64 180.259 45.88C179.739 46.2267 179.099 46.5667 178.339 46.9C178.459 47.5267 178.666 48 178.959 48.32C179.252 48.64 179.586 48.8 179.959 48.8C180.159 48.8 180.592 48.52 181.259 47.96ZM186.641 47.64L187.101 48C186.688 48.5733 186.121 49.0533 185.401 49.44C184.681 49.8133 183.981 50 183.301 50C182.621 50 182.075 49.8 181.661 49.4C181.248 49 181.041 48.4733 181.041 47.82C181.041 46.5933 181.688 45.3867 182.981 44.2C184.288 43.0133 185.608 42.42 186.941 42.42C187.821 42.42 188.261 42.7667 188.261 43.46C188.261 44.18 187.795 44.9067 186.861 45.64C185.941 46.3733 184.641 47.04 182.961 47.64C183.081 47.9467 183.268 48.1867 183.521 48.36C183.775 48.5333 184.035 48.62 184.301 48.62C184.875 48.62 185.655 48.2933 186.641 47.64ZM182.861 47.04C183.941 46.6667 184.868 46.2 185.641 45.64C186.415 45.08 186.801 44.5667 186.801 44.1C186.801 43.9267 186.735 43.7733 186.601 43.64C186.468 43.5067 186.315 43.44 186.141 43.44C185.515 43.44 184.835 43.8333 184.101 44.62C183.381 45.3933 182.968 46.2 182.861 47.04ZM203.888 47.8L204.308 48.14C204.081 48.7 203.721 49.1733 203.228 49.56C202.748 49.9467 202.308 50.14 201.908 50.14C201.521 50.14 201.215 50.0067 200.988 49.74C200.761 49.46 200.648 49.1 200.648 48.66C200.648 48.22 200.721 47.6533 200.868 46.96C200.241 47.9467 199.568 48.72 198.848 49.28C198.128 49.84 197.521 50.12 197.028 50.12C196.281 50.12 195.908 49.5867 195.908 48.52C195.908 47.6133 196.215 46.4533 196.828 45.04C197.441 43.6267 197.888 42.8067 198.168 42.58L199.128 43C198.581 43.88 198.168 44.7467 197.888 45.6C197.608 46.4533 197.468 47.0267 197.468 47.32C197.468 47.6 197.555 47.8267 197.728 48C197.915 48.1733 198.128 48.26 198.368 48.26C198.901 48.26 199.561 47.7733 200.348 46.8C201.148 45.8133 201.961 44.3467 202.788 42.4L203.808 42.86C203.781 42.9667 203.475 43.74 202.888 45.18C202.315 46.62 202.028 47.4867 202.028 47.78C202.028 48.06 202.088 48.2733 202.208 48.42C202.341 48.5667 202.468 48.64 202.588 48.64C202.721 48.64 202.821 48.6333 202.888 48.62C202.955 48.6067 203.021 48.58 203.088 48.54C203.155 48.5 203.208 48.4667 203.248 48.44C203.301 48.4133 203.361 48.3667 203.428 48.3L203.588 48.16C203.615 48.12 203.661 48.06 203.728 47.98C203.808 47.8867 203.861 47.8267 203.888 47.8ZM206.457 46.32C207.47 44.8 208.35 43.7667 209.097 43.22C209.843 42.66 210.497 42.38 211.057 42.38C211.617 42.38 212.05 42.5533 212.357 42.9C212.663 43.2333 212.817 43.66 212.817 44.18C212.817 45.62 212.297 46.9533 211.257 48.18C210.23 49.3933 209.07 50 207.777 50C207.203 50 206.75 49.9 206.417 49.7L206.897 48.84C207.59 48.9333 208.023 48.98 208.197 48.98C208.917 48.98 209.59 48.56 210.217 47.72C210.843 46.88 211.157 46.02 211.157 45.14C211.157 44.8067 211.057 44.5333 210.857 44.32C210.67 44.0933 210.423 43.98 210.117 43.98C209.383 43.98 208.55 44.6267 207.617 45.92C206.697 47.2133 205.83 48.8133 205.017 50.72C204.217 52.64 203.517 54.68 202.917 56.84L201.717 56.42C201.743 56.34 201.997 55.6467 202.477 54.34C202.943 53.0467 203.403 51.76 203.857 50.48C205.11 46.96 205.737 45.0333 205.737 44.7C205.737 43.8467 205.563 43.0733 205.217 42.38L206.217 41.88C206.63 42.4533 206.837 43.06 206.837 43.7C206.837 44.3267 206.71 45.2 206.457 46.32ZM229.168 47.98L229.628 48.32C229.442 48.72 229.095 49.1 228.588 49.46C228.095 49.82 227.642 50 227.228 50C226.442 50 226.048 49.5867 226.048 48.76C226.048 48.3733 226.148 47.9133 226.348 47.38L225.608 48.14C224.888 48.8733 224.262 49.3667 223.728 49.62C223.208 49.8733 222.695 50 222.188 50C221.682 50 221.295 49.86 221.028 49.58C220.775 49.2867 220.648 48.8867 220.648 48.38C220.648 47.4467 221.008 46.5267 221.728 45.62C222.448 44.7 223.368 43.9533 224.488 43.38C225.608 42.8067 226.728 42.5133 227.848 42.5L227.888 43.16L227.048 43.34C225.835 43.6067 224.762 44.14 223.828 44.94C222.908 45.74 222.448 46.54 222.448 47.34C222.448 48.1267 222.768 48.52 223.408 48.52C224.008 48.52 224.748 48.1 225.628 47.26C226.508 46.42 227.242 45.4333 227.828 44.3L228.668 44.8C227.842 46.4667 227.428 47.5267 227.428 47.98C227.428 48.1667 227.488 48.3267 227.608 48.46C227.742 48.58 227.868 48.64 227.988 48.64C228.122 48.64 228.208 48.6333 228.248 48.62C228.288 48.6067 228.328 48.5933 228.368 48.58C228.408 48.5533 228.455 48.52 228.508 48.48C228.575 48.44 228.628 48.4 228.668 48.36C228.722 48.32 228.802 48.26 228.908 48.18C229.015 48.1 229.102 48.0333 229.168 47.98ZM237.143 47.58L237.563 47.9C237.27 48.4867 236.863 48.98 236.343 49.38C235.837 49.78 235.377 49.98 234.963 49.98C234.55 49.98 234.223 49.86 233.983 49.62C233.743 49.38 233.623 49.08 233.623 48.72C233.623 48.36 233.85 47.7333 234.303 46.84C234.77 45.9333 235.003 45.2667 235.003 44.84C235.003 44.6533 234.923 44.4867 234.763 44.34C234.617 44.18 234.437 44.1 234.223 44.1C233.543 44.1 232.857 44.62 232.163 45.66C231.47 46.6867 230.697 48.1733 229.843 50.12L228.643 49.7C228.897 48.1533 229.257 46.6467 229.723 45.18C230.203 43.7 230.643 42.64 231.043 42L231.863 42.26C231.49 43.2067 231.017 44.84 230.443 47.16C232.283 44.0133 233.977 42.44 235.523 42.44C235.857 42.44 236.13 42.5533 236.343 42.78C236.57 43.0067 236.683 43.2733 236.683 43.58C236.683 43.8867 236.643 44.1667 236.563 44.42C236.483 44.66 236.23 45.2333 235.803 46.14C235.39 47.0333 235.183 47.5933 235.183 47.82C235.183 48.0467 235.25 48.2267 235.383 48.36C235.517 48.48 235.643 48.54 235.763 48.54C235.883 48.54 235.983 48.52 236.063 48.48C236.143 48.44 236.23 48.38 236.323 48.3C236.43 48.22 236.523 48.1467 236.603 48.08C236.683 48.0133 236.777 47.9267 236.883 47.82C237.003 47.7 237.09 47.62 237.143 47.58ZM248.121 35.22L249.141 35.58L248.861 36.1C247.394 38.8333 246.147 41.48 245.121 44.04C244.441 45.72 244.101 46.98 244.101 47.82C244.101 48.0333 244.154 48.2067 244.261 48.34C244.367 48.46 244.534 48.52 244.761 48.52C245.001 48.52 245.274 48.3667 245.581 48.06L245.941 48.4C245.767 48.7867 245.467 49.1467 245.041 49.48C244.614 49.8 244.201 49.96 243.801 49.96C243.027 49.96 242.641 49.5067 242.641 48.6C242.641 48.0667 242.787 47.2467 243.081 46.14C241.507 48.8867 239.967 50.26 238.461 50.26C237.941 50.26 237.527 50.1 237.221 49.78C236.914 49.46 236.761 49.0267 236.761 48.48C236.761 47.6133 237.107 46.7133 237.801 45.78C238.494 44.8467 239.347 44.0867 240.361 43.5C241.374 42.9 242.321 42.6 243.201 42.6L243.261 43.3C242.114 43.4467 241.041 43.9467 240.041 44.8C239.054 45.64 238.561 46.5 238.561 47.38C238.561 47.7533 238.661 48.0533 238.861 48.28C239.061 48.4933 239.321 48.6 239.641 48.6C240.294 48.6 241.147 47.9 242.201 46.5C242.587 45.9933 243.027 45.2533 243.521 44.28C244.027 43.3067 244.427 42.5267 244.721 41.94C245.027 41.34 245.321 40.76 245.601 40.2C245.894 39.6267 246.274 38.88 246.741 37.96C247.207 37.0267 247.667 36.1133 248.121 35.22ZM258.742 44.5C259.382 43.8467 259.942 43.4 260.422 43.16C260.915 42.9067 261.375 42.78 261.802 42.78C262.242 42.78 262.602 42.9333 262.882 43.24C263.175 43.5333 263.322 43.92 263.322 44.4C263.322 45.64 262.802 46.9467 261.762 48.32C260.722 49.68 259.602 50.36 258.402 50.36C258.042 50.36 257.702 50.2933 257.382 50.16L257.862 49.28C258.075 49.3333 258.242 49.36 258.362 49.36C259.175 49.36 259.915 48.9067 260.582 48C261.249 47.0933 261.582 46.2 261.582 45.32C261.582 45.04 261.489 44.8133 261.302 44.64C261.129 44.4533 260.902 44.36 260.622 44.36C260.009 44.36 259.289 44.8533 258.462 45.84C257.649 46.8267 256.935 48.1133 256.322 49.7L255.102 49.2C255.502 47.16 256.302 44.6733 257.502 41.74C258.702 38.8067 259.702 36.7333 260.502 35.52L261.522 35.88C260.642 37.52 259.702 39.5533 258.702 41.98C257.715 44.4067 257.135 46.0533 256.962 46.92C257.509 45.96 258.102 45.1533 258.742 44.5ZM268.235 47.64L268.695 48C268.282 48.5733 267.715 49.0533 266.995 49.44C266.275 49.8133 265.575 50 264.895 50C264.215 50 263.668 49.8 263.255 49.4C262.842 49 262.635 48.4733 262.635 47.82C262.635 46.5933 263.282 45.3867 264.575 44.2C265.882 43.0133 267.202 42.42 268.535 42.42C269.415 42.42 269.855 42.7667 269.855 43.46C269.855 44.18 269.388 44.9067 268.455 45.64C267.535 46.3733 266.235 47.04 264.555 47.64C264.675 47.9467 264.862 48.1867 265.115 48.36C265.368 48.5333 265.628 48.62 265.895 48.62C266.468 48.62 267.248 48.2933 268.235 47.64ZM264.455 47.04C265.535 46.6667 266.462 46.2 267.235 45.64C268.008 45.08 268.395 44.5667 268.395 44.1C268.395 43.9267 268.328 43.7733 268.195 43.64C268.062 43.5067 267.908 43.44 267.735 43.44C267.108 43.44 266.428 43.8333 265.695 44.62C264.975 45.3933 264.562 46.2 264.455 47.04ZM276.91 47.98L277.37 48.32C277.183 48.72 276.836 49.1 276.33 49.46C275.836 49.82 275.383 50 274.97 50C274.183 50 273.79 49.5867 273.79 48.76C273.79 48.3733 273.89 47.9133 274.09 47.38L273.35 48.14C272.63 48.8733 272.003 49.3667 271.47 49.62C270.95 49.8733 270.436 50 269.93 50C269.423 50 269.036 49.86 268.77 49.58C268.516 49.2867 268.39 48.8867 268.39 48.38C268.39 47.4467 268.75 46.5267 269.47 45.62C270.19 44.7 271.11 43.9533 272.23 43.38C273.35 42.8067 274.47 42.5133 275.59 42.5L275.63 43.16L274.79 43.34C273.576 43.6067 272.503 44.14 271.57 44.94C270.65 45.74 270.19 46.54 270.19 47.34C270.19 48.1267 270.51 48.52 271.15 48.52C271.75 48.52 272.49 48.1 273.37 47.26C274.25 46.42 274.983 45.4333 275.57 44.3L276.41 44.8C275.583 46.4667 275.17 47.5267 275.17 47.98C275.17 48.1667 275.23 48.3267 275.35 48.46C275.483 48.58 275.61 48.64 275.73 48.64C275.863 48.64 275.95 48.6333 275.99 48.62C276.03 48.6067 276.07 48.5933 276.11 48.58C276.15 48.5533 276.196 48.52 276.25 48.48C276.316 48.44 276.37 48.4 276.41 48.36C276.463 48.32 276.543 48.26 276.65 48.18C276.756 48.1 276.843 48.0333 276.91 47.98ZM284.525 47.8L284.945 48.14C284.718 48.7 284.358 49.1733 283.865 49.56C283.385 49.9467 282.945 50.14 282.545 50.14C282.158 50.14 281.851 50.0067 281.625 49.74C281.398 49.46 281.285 49.1 281.285 48.66C281.285 48.22 281.358 47.6533 281.505 46.96C280.878 47.9467 280.205 48.72 279.485 49.28C278.765 49.84 278.158 50.12 277.665 50.12C276.918 50.12 276.545 49.5867 276.545 48.52C276.545 47.6133 276.851 46.4533 277.465 45.04C278.078 43.6267 278.525 42.8067 278.805 42.58L279.765 43C279.218 43.88 278.805 44.7467 278.525 45.6C278.245 46.4533 278.105 47.0267 278.105 47.32C278.105 47.6 278.191 47.8267 278.365 48C278.551 48.1733 278.765 48.26 279.005 48.26C279.538 48.26 280.198 47.7733 280.985 46.8C281.785 45.8133 282.598 44.3467 283.425 42.4L284.445 42.86C284.418 42.9667 284.111 43.74 283.525 45.18C282.951 46.62 282.665 47.4867 282.665 47.78C282.665 48.06 282.725 48.2733 282.845 48.42C282.978 48.5667 283.105 48.64 283.225 48.64C283.358 48.64 283.458 48.6333 283.525 48.62C283.591 48.6067 283.658 48.58 283.725 48.54C283.791 48.5 283.845 48.4667 283.885 48.44C283.938 48.4133 283.998 48.3667 284.065 48.3L284.225 48.16C284.251 48.12 284.298 48.06 284.365 47.98C284.445 47.8867 284.498 47.8267 284.525 47.8ZM288.793 47.76L289.233 48.26C288.9 48.78 288.493 49.1867 288.013 49.48C287.547 49.7733 287.073 49.92 286.593 49.92C286.113 49.92 285.733 49.7867 285.453 49.52C285.173 49.24 285.033 48.86 285.033 48.38C285.033 47.26 285.453 45.7133 286.293 43.74C285.613 43.8467 284.933 44.0067 284.253 44.22L284.113 43.44L284.093 43.42C284.76 43.14 285.633 42.9133 286.713 42.74C286.82 42.54 287.06 42.0533 287.433 41.28C288.18 39.7467 288.713 38.7533 289.033 38.3L289.893 38.64C289.76 38.9333 289.527 39.4267 289.193 40.12C288.86 40.8 288.487 41.5733 288.073 42.44C288.673 42.4 289.147 42.38 289.493 42.38C289.84 42.38 290.107 42.4333 290.293 42.54V43.4C290.107 43.36 289.833 43.34 289.473 43.34C289.127 43.34 288.5 43.4 287.593 43.52C286.807 45.28 286.413 46.56 286.413 47.36C286.413 47.6667 286.507 47.92 286.693 48.12C286.893 48.32 287.153 48.42 287.473 48.42C287.807 48.42 288.247 48.2 288.793 47.76ZM297.735 48.74L297.795 49.26C297.742 49.3 297.122 49.54 295.935 49.98C295.775 50.86 295.568 51.7267 295.315 52.58C295.075 53.4467 294.828 54.1 294.575 54.54C294.335 54.9933 294.048 55.44 293.715 55.88C293.048 56.76 292.148 57.2 291.015 57.2C290.455 57.2 290.008 57.0267 289.675 56.68C289.342 56.3333 289.175 55.86 289.175 55.26C289.175 52.9533 291.108 51.1 294.975 49.7L296.055 45.9C294.908 47.62 293.875 48.68 292.955 49.08C292.502 49.2933 292.022 49.4 291.515 49.4C291.022 49.4 290.622 49.24 290.315 48.92C290.022 48.6 289.875 48.1333 289.875 47.52C289.875 46.9067 290.082 46.0533 290.495 44.96C290.922 43.8533 291.395 42.9267 291.915 42.18L292.895 42.6C292.855 42.64 292.668 42.9933 292.335 43.66C291.748 44.8733 291.455 45.7733 291.455 46.36C291.455 46.9467 291.568 47.34 291.795 47.54C292.022 47.74 292.355 47.84 292.795 47.84C293.235 47.84 293.728 47.58 294.275 47.06C294.835 46.5267 295.695 45.48 296.855 43.92L297.575 44.34C297.468 44.78 297.228 45.58 296.855 46.74C296.495 47.8867 296.248 48.7667 296.115 49.38L297.735 48.74ZM294.855 50.3C294.015 50.6867 293.275 51.1267 292.635 51.62C291.435 52.5267 290.835 53.4067 290.835 54.26C290.835 54.58 290.928 54.84 291.115 55.04C291.302 55.24 291.535 55.34 291.815 55.34C293.148 55.34 294.162 53.66 294.855 50.3Z" fill="url(#paint0_linear_2_45)"/>
<path d="M6.912 27.28C6.912 27.9627 6.98667 28.464 7.136 28.784C7.28533 29.0827 7.56267 29.296 7.968 29.424C8.39467 29.552 9.06667 29.616 9.984 29.616C10.048 29.616 10.08 29.68 10.08 29.808C10.08 29.936 10.048 30 9.984 30C9.10933 30 8.42667 29.9893 7.936 29.968L5.152 29.936L2.816 29.968C2.38933 29.9893 1.81333 30 1.088 30C1.024 30 0.992 29.936 0.992 29.808C0.992 29.68 1.024 29.616 1.088 29.616C1.77067 29.616 2.26133 29.5627 2.56 29.456C2.88 29.3493 3.09333 29.1467 3.2 28.848C3.30667 28.528 3.36 28.048 3.36 27.408V12.592C3.36 11.952 3.30667 11.4827 3.2 11.184C3.09333 10.8853 2.88 10.6827 2.56 10.576C2.24 10.448 1.74933 10.384 1.088 10.384C1.024 10.384 0.992 10.32 0.992 10.192C0.992 10.064 1.024 10 1.088 10L2.784 10.032C3.76533 10.0747 4.544 10.096 5.12 10.096C5.632 10.096 6.24 10.064 6.944 10C7.22133 9.97867 7.57333 9.95733 8 9.936C8.42667 9.91467 8.91733 9.904 9.472 9.904C11.648 9.904 13.3653 10.3627 14.624 11.28C15.8827 12.176 16.512 13.5733 16.512 15.472C16.512 16.7947 16.1707 17.9147 15.488 18.832C14.8053 19.7493 13.92 20.4427 12.832 20.912C11.7653 21.3813 10.6667 21.616 9.536 21.616C8.96 21.616 8.45867 21.5627 8.032 21.456C7.98933 21.456 7.968 21.4027 7.968 21.296C7.968 21.232 7.97867 21.168 8 21.104C8.04267 21.04 8.08533 21.0187 8.128 21.04C8.448 21.1253 8.81067 21.168 9.216 21.168C10.1973 21.168 11.008 20.7093 11.648 19.792C12.3093 18.8747 12.64 17.5733 12.64 15.888C12.64 14.2027 12.2773 12.9013 11.552 11.984C10.848 11.0667 9.81333 10.608 8.448 10.608C7.85067 10.608 7.44533 10.7467 7.232 11.024C7.01867 11.3013 6.912 11.8453 6.912 12.656V27.28ZM35.3195 24.912C35.3195 24.8693 35.3622 24.848 35.4475 24.848C35.5115 24.848 35.5648 24.8693 35.6075 24.912C35.6715 24.9333 35.7035 24.9547 35.7035 24.976C35.4902 26.64 35.3835 28.1547 35.3835 29.52C35.3835 29.6907 35.3515 29.8187 35.2875 29.904C35.2235 29.968 35.0955 30 34.9035 30H20.7595C20.6955 30 20.6635 29.936 20.6635 29.808C20.6635 29.68 20.6955 29.616 20.7595 29.616C21.4422 29.616 21.9328 29.5627 22.2315 29.456C22.5515 29.3493 22.7648 29.1467 22.8715 28.848C22.9782 28.528 23.0315 28.048 23.0315 27.408V12.592C23.0315 11.952 22.9782 11.4827 22.8715 11.184C22.7648 10.8853 22.5515 10.6827 22.2315 10.576C21.9115 10.448 21.4208 10.384 20.7595 10.384C20.6955 10.384 20.6635 10.32 20.6635 10.192C20.6635 10.064 20.6955 10 20.7595 10H34.3275C34.5408 10 34.6475 10.096 34.6475 10.288L34.7115 14.544C34.7115 14.5867 34.6475 14.6187 34.5195 14.64C34.4128 14.6613 34.3488 14.64 34.3275 14.576C33.9862 13.3387 33.4102 12.4213 32.5995 11.824C31.7888 11.2267 30.7222 10.928 29.3995 10.928H28.4395C27.7995 10.928 27.3302 11.0667 27.0315 11.344C26.7328 11.6213 26.5835 12.048 26.5835 12.624V19.152H29.2395C30.4768 19.152 31.4262 18.9387 32.0875 18.512C32.7488 18.0853 33.0795 17.488 33.0795 16.72C33.0795 16.656 33.1328 16.624 33.2395 16.624C33.3675 16.624 33.4315 16.656 33.4315 16.72L33.3995 19.6L33.4315 21.136C33.4742 21.8613 33.4955 22.4373 33.4955 22.864C33.4955 22.9067 33.4315 22.928 33.3035 22.928C33.1755 22.928 33.1115 22.9067 33.1115 22.864C33.1115 21.9893 32.7702 21.3067 32.0875 20.816C31.4262 20.304 30.4662 20.048 29.2075 20.048H26.5835V27.28C26.5835 27.8987 26.7008 28.3573 26.9355 28.656C27.1702 28.9547 27.5435 29.104 28.0555 29.104H29.1115C30.7755 29.104 32.1088 28.7627 33.1115 28.08C34.1142 27.3973 34.8502 26.3413 35.3195 24.912ZM61.5198 29.616C61.5624 29.616 61.5838 29.68 61.5838 29.808C61.5838 29.936 61.5624 30 61.5198 30H55.8238C55.3544 30 54.4798 29.1253 53.1998 27.376C51.9198 25.6053 50.3731 23.1413 48.5598 19.984C48.3891 20.0053 48.1438 20.016 47.8238 20.016C46.9918 20.016 46.4051 20.0053 46.0638 19.984V27.408C46.0638 28.0693 46.1171 28.5493 46.2238 28.848C46.3304 29.1467 46.5331 29.3493 46.8318 29.456C47.1518 29.5627 47.6531 29.616 48.3358 29.616C48.3784 29.616 48.3998 29.68 48.3998 29.808C48.3998 29.936 48.3784 30 48.3358 30C47.6318 30 47.0771 29.9893 46.6718 29.968L44.2398 29.936L41.9038 29.968C41.4771 29.9893 40.9011 30 40.1758 30C40.1118 30 40.0798 29.936 40.0798 29.808C40.0798 29.68 40.1118 29.616 40.1758 29.616C40.8584 29.616 41.3491 29.5627 41.6478 29.456C41.9678 29.3493 42.1811 29.1467 42.2878 28.848C42.4158 28.528 42.4798 28.048 42.4798 27.408V12.592C42.4798 11.952 42.4264 11.4827 42.3198 11.184C42.2131 10.8853 41.9998 10.6827 41.6798 10.576C41.3598 10.448 40.8691 10.384 40.2078 10.384C40.1651 10.384 40.1438 10.32 40.1438 10.192C40.1438 10.064 40.1651 10 40.2078 10L41.9038 10.032C42.8851 10.0747 43.6638 10.096 44.2398 10.096C44.8584 10.096 45.5411 10.064 46.2878 10C46.5224 9.97867 46.8211 9.95733 47.1838 9.936C47.5678 9.91467 48.0158 9.904 48.5278 9.904C50.4904 9.904 52.0051 10.2667 53.0718 10.992C54.1598 11.696 54.7038 12.688 54.7038 13.968C54.7038 14.9493 54.4051 15.888 53.8078 16.784C53.2104 17.68 52.4318 18.4053 51.4718 18.96C53.1784 21.648 54.6078 23.7493 55.7598 25.264C56.9331 26.7787 57.9678 27.888 58.8638 28.592C59.7811 29.2747 60.6664 29.616 61.5198 29.616ZM46.0638 19.056C46.5758 19.1413 47.1944 19.184 47.9198 19.184C48.6878 19.184 49.2958 19.0667 49.7438 18.832C50.1918 18.5973 50.5118 18.192 50.7038 17.616C50.9171 17.04 51.0238 16.2293 51.0238 15.184C51.0238 13.4347 50.7678 12.2293 50.2558 11.568C49.7438 10.9067 49.0078 10.576 48.0478 10.576C47.3224 10.576 46.8104 10.736 46.5118 11.056C46.2131 11.376 46.0638 11.9093 46.0638 12.656V19.056ZM78.2315 14.544C78.2315 14.5867 78.1675 14.6187 78.0395 14.64C77.9328 14.6613 77.8688 14.64 77.8475 14.576C77.5062 13.3387 76.9302 12.4213 76.1195 11.824C75.3088 11.2267 74.2422 10.928 72.9195 10.928H71.9595C71.3195 10.928 70.8502 11.0667 70.5515 11.344C70.2528 11.6213 70.1035 12.048 70.1035 12.624V19.536H72.4075C73.6448 19.536 74.5835 19.3227 75.2235 18.896C75.8848 18.448 76.2155 17.84 76.2155 17.072C76.2155 17.0293 76.2795 17.008 76.4075 17.008C76.5355 17.008 76.5995 17.0293 76.5995 17.072L76.5675 19.984C76.5675 20.6667 76.5782 21.1787 76.5995 21.52L76.6315 23.216C76.6315 23.28 76.5675 23.312 76.4395 23.312C76.3115 23.312 76.2475 23.28 76.2475 23.216C76.2475 22.3627 75.9062 21.6907 75.2235 21.2C74.5622 20.688 73.6128 20.432 72.3755 20.432H70.1035V27.28C70.1035 27.9413 70.1888 28.432 70.3595 28.752C70.5302 29.072 70.8502 29.296 71.3195 29.424C71.7888 29.552 72.5248 29.616 73.5275 29.616C73.5702 29.616 73.5915 29.68 73.5915 29.808C73.5915 29.936 73.5702 30 73.5275 30C72.6528 30 71.9702 29.9893 71.4795 29.968L68.2155 29.936L65.8155 29.968C65.3888 29.9893 64.8022 30 64.0555 30C63.9915 30 63.9595 29.936 63.9595 29.808C63.9595 29.68 63.9915 29.616 64.0555 29.616C64.8022 29.616 65.3462 29.5627 65.6875 29.456C66.0288 29.3493 66.2528 29.1467 66.3595 28.848C66.4875 28.528 66.5515 28.048 66.5515 27.408V12.592C66.5515 11.952 66.4982 11.4827 66.3915 11.184C66.2848 10.8853 66.0715 10.6827 65.7515 10.576C65.4315 10.448 64.9408 10.384 64.2795 10.384C64.2155 10.384 64.1835 10.32 64.1835 10.192C64.1835 10.064 64.2155 10 64.2795 10H77.8475C78.0608 10 78.1675 10.096 78.1675 10.288L78.2315 14.544ZM97.3183 24.912C97.3183 24.8693 97.3609 24.848 97.4463 24.848C97.5103 24.848 97.5636 24.8693 97.6063 24.912C97.6703 24.9333 97.7023 24.9547 97.7023 24.976C97.4889 26.64 97.3823 28.1547 97.3823 29.52C97.3823 29.6907 97.3503 29.8187 97.2863 29.904C97.2223 29.968 97.0943 30 96.9023 30H82.7583C82.6943 30 82.6623 29.936 82.6623 29.808C82.6623 29.68 82.6943 29.616 82.7583 29.616C83.4409 29.616 83.9316 29.5627 84.2303 29.456C84.5503 29.3493 84.7636 29.1467 84.8703 28.848C84.9769 28.528 85.0303 28.048 85.0303 27.408V12.592C85.0303 11.952 84.9769 11.4827 84.8703 11.184C84.7636 10.8853 84.5503 10.6827 84.2303 10.576C83.9103 10.448 83.4196 10.384 82.7583 10.384C82.6943 10.384 82.6623 10.32 82.6623 10.192C82.6623 10.064 82.6943 10 82.7583 10H96.3263C96.5396 10 96.6463 10.096 96.6463 10.288L96.7103 14.544C96.7103 14.5867 96.6463 14.6187 96.5183 14.64C96.4116 14.6613 96.3476 14.64 96.3263 14.576C95.9849 13.3387 95.4089 12.4213 94.5983 11.824C93.7876 11.2267 92.7209 10.928 91.3983 10.928H90.4383C89.7983 10.928 89.3289 11.0667 89.0303 11.344C88.7316 11.6213 88.5823 12.048 88.5823 12.624V19.152H91.2383C92.4756 19.152 93.4249 18.9387 94.0863 18.512C94.7476 18.0853 95.0783 17.488 95.0783 16.72C95.0783 16.656 95.1316 16.624 95.2383 16.624C95.3663 16.624 95.4303 16.656 95.4303 16.72L95.3983 19.6L95.4303 21.136C95.4729 21.8613 95.4943 22.4373 95.4943 22.864C95.4943 22.9067 95.4303 22.928 95.3023 22.928C95.1743 22.928 95.1103 22.9067 95.1103 22.864C95.1103 21.9893 94.7689 21.3067 94.0863 20.816C93.4249 20.304 92.4649 20.048 91.2063 20.048H88.5823V27.28C88.5823 27.8987 88.6996 28.3573 88.9343 28.656C89.1689 28.9547 89.5423 29.104 90.0543 29.104H91.1103C92.7743 29.104 94.1076 28.7627 95.1103 28.08C96.1129 27.3973 96.8489 26.3413 97.3183 24.912ZM114.335 9.648C115.273 9.648 116.255 9.73333 117.279 9.904C118.303 10.0533 119.103 10.256 119.679 10.512C119.871 10.576 119.988 10.6613 120.031 10.768C120.095 10.8533 120.148 11.0133 120.191 11.248L120.575 15.696C120.575 15.76 120.521 15.8027 120.415 15.824C120.308 15.8453 120.244 15.8133 120.223 15.728C119.497 14.0427 118.527 12.7413 117.311 11.824C116.095 10.9067 114.687 10.448 113.087 10.448C110.975 10.448 109.343 11.2267 108.191 12.784C107.039 14.3413 106.463 16.432 106.463 19.056C106.463 21.0187 106.772 22.8107 107.391 24.432C108.031 26.0533 108.916 27.344 110.047 28.304C111.199 29.2427 112.5 29.712 113.951 29.712C115.316 29.712 116.532 29.264 117.599 28.368C118.687 27.4507 119.657 26.064 120.511 24.208C120.532 24.1227 120.596 24.0907 120.703 24.112C120.831 24.1333 120.895 24.176 120.895 24.24L120.415 28.592C120.372 28.848 120.319 29.0187 120.255 29.104C120.212 29.168 120.095 29.2427 119.903 29.328C118.004 30.032 116.052 30.384 114.047 30.384C111.444 30.384 109.268 29.872 107.519 28.848C105.769 27.8027 104.479 26.4907 103.647 24.912C102.836 23.312 102.431 21.648 102.431 19.92C102.431 17.8933 102.975 16.1013 104.063 14.544C105.172 12.9867 106.633 11.7813 108.447 10.928C110.281 10.0747 112.244 9.648 114.335 9.648ZM131.133 10.736C128.594 10.736 126.77 12.3893 125.661 15.696C125.639 15.76 125.575 15.792 125.469 15.792C125.362 15.7707 125.309 15.728 125.309 15.664C125.394 14.8107 125.49 13.712 125.597 12.368C125.703 11.0027 125.757 9.97867 125.757 9.296C125.757 9.18933 125.81 9.136 125.917 9.136C126.045 9.136 126.109 9.18933 126.109 9.296C126.109 9.76533 126.717 10 127.933 10C129.767 10.064 131.911 10.096 134.365 10.096C135.623 10.096 136.957 10.0747 138.365 10.032L140.541 10C141.351 10 141.938 9.94667 142.301 9.84C142.685 9.73333 142.93 9.52 143.037 9.2C143.058 9.11467 143.122 9.072 143.229 9.072C143.357 9.072 143.421 9.11467 143.421 9.2C143.357 9.84 143.282 10.864 143.197 12.272C143.133 13.68 143.101 14.8107 143.101 15.664C143.101 15.728 143.047 15.76 142.941 15.76C142.834 15.76 142.77 15.728 142.749 15.664C142.429 14.0213 141.831 12.7947 140.957 11.984C140.082 11.152 139.005 10.736 137.725 10.736C137.106 10.736 136.69 10.8747 136.477 11.152C136.285 11.408 136.189 11.9093 136.189 12.656V27.408C136.189 28.0693 136.253 28.5493 136.381 28.848C136.509 29.1467 136.754 29.3493 137.117 29.456C137.479 29.5627 138.055 29.616 138.845 29.616C138.909 29.616 138.941 29.68 138.941 29.808C138.941 29.936 138.909 30 138.845 30C138.077 30 137.469 29.9893 137.021 29.968L134.365 29.936L131.773 29.968C131.325 29.9893 130.706 30 129.917 30C129.853 30 129.821 29.936 129.821 29.808C129.821 29.68 129.853 29.616 129.917 29.616C130.685 29.616 131.25 29.5627 131.613 29.456C131.997 29.3493 132.253 29.1467 132.381 28.848C132.53 28.528 132.605 28.048 132.605 27.408V12.592C132.605 11.8667 132.509 11.376 132.317 11.12C132.125 10.864 131.73 10.736 131.133 10.736ZM162.715 10.736C160.177 10.736 158.353 12.3893 157.243 15.696C157.222 15.76 157.158 15.792 157.051 15.792C156.945 15.7707 156.891 15.728 156.891 15.664C156.977 14.8107 157.073 13.712 157.179 12.368C157.286 11.0027 157.339 9.97867 157.339 9.296C157.339 9.18933 157.393 9.136 157.499 9.136C157.627 9.136 157.691 9.18933 157.691 9.296C157.691 9.76533 158.299 10 159.515 10C161.35 10.064 163.494 10.096 165.947 10.096C167.206 10.096 168.539 10.0747 169.947 10.032L172.123 10C172.934 10 173.521 9.94667 173.883 9.84C174.267 9.73333 174.513 9.52 174.619 9.2C174.641 9.11467 174.705 9.072 174.811 9.072C174.939 9.072 175.003 9.11467 175.003 9.2C174.939 9.84 174.865 10.864 174.779 12.272C174.715 13.68 174.683 14.8107 174.683 15.664C174.683 15.728 174.63 15.76 174.523 15.76C174.417 15.76 174.353 15.728 174.331 15.664C174.011 14.0213 173.414 12.7947 172.539 11.984C171.665 11.152 170.587 10.736 169.307 10.736C168.689 10.736 168.273 10.8747 168.059 11.152C167.867 11.408 167.771 11.9093 167.771 12.656V27.408C167.771 28.0693 167.835 28.5493 167.963 28.848C168.091 29.1467 168.337 29.3493 168.699 29.456C169.062 29.5627 169.638 29.616 170.427 29.616C170.491 29.616 170.523 29.68 170.523 29.808C170.523 29.936 170.491 30 170.427 30C169.659 30 169.051 29.9893 168.603 29.968L165.947 29.936L163.355 29.968C162.907 29.9893 162.289 30 161.499 30C161.435 30 161.403 29.936 161.403 29.808C161.403 29.68 161.435 29.616 161.499 29.616C162.267 29.616 162.833 29.5627 163.195 29.456C163.579 29.3493 163.835 29.1467 163.963 28.848C164.113 28.528 164.187 28.048 164.187 27.408V12.592C164.187 11.8667 164.091 11.376 163.899 11.12C163.707 10.864 163.313 10.736 162.715 10.736ZM189.083 30.384C187.099 30.384 185.329 29.9253 183.771 29.008C182.235 28.0693 181.041 26.8107 180.187 25.232C179.355 23.632 178.939 21.8933 178.939 20.016C178.939 17.8187 179.494 15.9413 180.603 14.384C181.713 12.8053 183.131 11.6213 184.859 10.832C186.609 10.0427 188.39 9.648 190.203 9.648C192.23 9.648 194.011 10.128 195.547 11.088C197.083 12.0267 198.257 13.2747 199.067 14.832C199.899 16.3893 200.315 18.0427 200.315 19.792C200.315 21.7333 199.803 23.5147 198.779 25.136C197.755 26.7573 196.379 28.0373 194.651 28.976C192.945 29.9147 191.089 30.384 189.083 30.384ZM190.139 29.584C191.334 29.584 192.401 29.2427 193.339 28.56C194.299 27.856 195.046 26.8427 195.579 25.52C196.113 24.176 196.379 22.576 196.379 20.72C196.379 18.7573 196.081 17.008 195.483 15.472C194.886 13.9147 194.022 12.6987 192.891 11.824C191.761 10.9493 190.438 10.512 188.923 10.512C186.982 10.512 185.489 11.248 184.443 12.72C183.398 14.1707 182.875 16.208 182.875 18.832C182.875 20.9013 183.185 22.7573 183.803 24.4C184.443 26.0213 185.307 27.2907 186.395 28.208C187.505 29.1253 188.753 29.584 190.139 29.584ZM221.903 14.096C221.903 12.944 221.637 12.0373 221.103 11.376C220.591 10.7147 219.866 10.384 218.927 10.384C218.885 10.384 218.863 10.32 218.863 10.192C218.863 10.064 218.885 10 218.927 10L220.463 10.032C221.274 10.0747 221.925 10.096 222.415 10.096C222.821 10.096 223.407 10.0747 224.175 10.032L225.647 10C225.69 10 225.711 10.064 225.711 10.192C225.711 10.32 225.69 10.384 225.647 10.384C224.815 10.384 224.165 10.7147 223.695 11.376C223.226 12.0373 222.991 12.944 222.991 14.096V22.992C222.991 24.4853 222.661 25.7973 221.999 26.928C221.338 28.0587 220.399 28.9333 219.183 29.552C217.989 30.1493 216.602 30.448 215.023 30.448C213.445 30.448 212.047 30.1493 210.831 29.552C209.615 28.9547 208.655 28.0907 207.951 26.96C207.269 25.808 206.927 24.464 206.927 22.928V12.592C206.927 11.952 206.863 11.4827 206.735 11.184C206.629 10.8853 206.415 10.6827 206.095 10.576C205.797 10.448 205.317 10.384 204.655 10.384C204.591 10.384 204.559 10.32 204.559 10.192C204.559 10.064 204.591 10 204.655 10L206.351 10.032C207.333 10.0747 208.111 10.096 208.687 10.096C209.327 10.096 210.138 10.0747 211.119 10.032L212.751 10C212.815 10 212.847 10.064 212.847 10.192C212.847 10.32 212.815 10.384 212.751 10.384C212.09 10.384 211.599 10.448 211.279 10.576C210.981 10.704 210.767 10.928 210.639 11.248C210.533 11.5467 210.479 12.016 210.479 12.656V21.808C210.479 24.3467 210.981 26.224 211.983 27.44C212.986 28.656 214.405 29.264 216.239 29.264C218.01 29.264 219.397 28.7307 220.399 27.664C221.402 26.576 221.903 25.0293 221.903 23.024V14.096ZM241.363 9.648C242.302 9.648 243.283 9.73333 244.307 9.904C245.331 10.0533 246.131 10.256 246.707 10.512C246.899 10.576 247.017 10.6613 247.059 10.768C247.123 10.8533 247.177 11.0133 247.219 11.248L247.603 15.696C247.603 15.76 247.55 15.8027 247.443 15.824C247.337 15.8453 247.273 15.8133 247.251 15.728C246.526 14.0427 245.555 12.7413 244.339 11.824C243.123 10.9067 241.715 10.448 240.115 10.448C238.003 10.448 236.371 11.2267 235.219 12.784C234.067 14.3413 233.491 16.432 233.491 19.056C233.491 21.0187 233.801 22.8107 234.419 24.432C235.059 26.0533 235.945 27.344 237.075 28.304C238.227 29.2427 239.529 29.712 240.979 29.712C242.345 29.712 243.561 29.264 244.627 28.368C245.715 27.4507 246.686 26.064 247.539 24.208C247.561 24.1227 247.625 24.0907 247.731 24.112C247.859 24.1333 247.923 24.176 247.923 24.24L247.443 28.592C247.401 28.848 247.347 29.0187 247.283 29.104C247.241 29.168 247.123 29.2427 246.931 29.328C245.033 30.032 243.081 30.384 241.075 30.384C238.473 30.384 236.297 29.872 234.547 28.848C232.798 27.8027 231.507 26.4907 230.675 24.912C229.865 23.312 229.459 21.648 229.459 19.92C229.459 17.8933 230.003 16.1013 231.091 14.544C232.201 12.9867 233.662 11.7813 235.475 10.928C237.31 10.0747 239.273 9.648 241.363 9.648ZM274.481 29.616C274.545 29.616 274.577 29.68 274.577 29.808C274.577 29.936 274.545 30 274.481 30C273.735 30 273.137 29.9893 272.689 29.968L270.225 29.936L267.345 29.968C266.961 29.9893 266.439 30 265.777 30C265.713 30 265.681 29.936 265.681 29.808C265.681 29.68 265.713 29.616 265.777 29.616C266.567 29.616 267.143 29.5627 267.505 29.456C267.868 29.3493 268.113 29.1467 268.241 28.848C268.369 28.5493 268.433 28.0693 268.433 27.408V20.048H258.097V27.408C258.097 28.048 258.161 28.528 258.289 28.848C258.417 29.1467 258.663 29.3493 259.025 29.456C259.388 29.5627 259.964 29.616 260.753 29.616C260.796 29.616 260.817 29.68 260.817 29.808C260.817 29.936 260.796 30 260.753 30C260.007 30 259.409 29.9893 258.961 29.968L256.177 29.936L253.777 29.968C253.351 29.9893 252.764 30 252.017 30C251.975 30 251.953 29.936 251.953 29.808C251.953 29.68 251.975 29.616 252.017 29.616C252.764 29.616 253.308 29.5627 253.649 29.456C253.991 29.3493 254.225 29.1467 254.353 28.848C254.481 28.528 254.545 28.048 254.545 27.408V12.592C254.545 11.952 254.481 11.4827 254.353 11.184C254.225 10.8853 253.991 10.6827 253.649 10.576C253.329 10.448 252.807 10.384 252.081 10.384C252.017 10.384 251.985 10.32 251.985 10.192C251.985 10.064 252.017 10 252.081 10L253.809 10.032C254.791 10.0747 255.58 10.096 256.177 10.096C256.988 10.096 257.927 10.0747 258.993 10.032L260.753 10C260.796 10 260.817 10.064 260.817 10.192C260.817 10.32 260.796 10.384 260.753 10.384C259.985 10.384 259.42 10.448 259.057 10.576C258.695 10.704 258.439 10.928 258.289 11.248C258.161 11.5467 258.097 12.016 258.097 12.656V19.152H268.433V12.656C268.433 12.016 268.369 11.5467 268.241 11.248C268.113 10.928 267.868 10.704 267.505 10.576C267.143 10.448 266.567 10.384 265.777 10.384C265.713 10.384 265.681 10.32 265.681 10.192C265.681 10.064 265.713 10 265.777 10L267.345 10.032C268.412 10.0747 269.372 10.096 270.225 10.096C270.801 10.096 271.623 10.0747 272.689 10.032L274.481 10C274.545 10 274.577 10.064 274.577 10.192C274.577 10.32 274.545 10.384 274.481 10.384C273.756 10.384 273.212 10.448 272.849 10.576C272.508 10.6827 272.273 10.8853 272.145 11.184C272.039 11.4827 271.985 11.952 271.985 12.592V27.408C271.985 28.048 272.039 28.528 272.145 28.848C272.273 29.1467 272.508 29.3493 272.849 29.456C273.191 29.5627 273.735 29.616 274.481 29.616Z" fill="url(#paint1_linear_2_45)"/>
<defs>
<linearGradient id="paint0_linear_2_45" x1="-17.9902" y1="37.3917" x2="311.538" y2="53.0502" gradientUnits="userSpaceOnUse">
<stop stop-color="#CDB971"/>
<stop offset="0.464698" stop-color="#D9C46E"/>
<stop offset="1" stop-color="#D8C37B"/>
</linearGradient>
<linearGradient id="paint1_linear_2_45" x1="5.0876" y1="10.6858" x2="301.432" y2="30.7037" gradientUnits="userSpaceOnUse">
<stop stop-color="#E3A13B"/>
<stop offset="1" stop-color="#BC925B"/>
</linearGradient>
</defs>
</svg>
